<?xml version="1.0" standalone="no"?><!DOCTYPE svg PUBLIC "-//W3C//DTD SVG 1.1//EN"
  "http://www.w3.org/Graphics/SVG/1.1/DTD/svg11.dtd">
<svg t="1547458805625" class="icon" style="" viewBox="0 0 1024 1024" version="1.1" xmlns="http://www.w3.org/2000/svg"
     p-id="2137" xmlns:xlink="http://www.w3.org/1999/xlink" width="200" height="200">
  <defs>
    <style type="text/css"></style>
  </defs>
  <path
    d="M348.16 839.68c-180.224 0-327.68-147.456-327.68-327.68s147.456-327.68 327.68-327.68 327.68 147.456 327.68 327.68-147.456 327.68-327.68 327.68z m0-40.96c157.696 0 286.72-129.024 286.72-286.72s-129.024-286.72-286.72-286.72-286.72 129.024-286.72 286.72 129.024 286.72 286.72 286.72z m327.68 40.96c-180.224 0-327.68-147.456-327.68-327.68s147.456-327.68 327.68-327.68 327.68 147.456 327.68 327.68-147.456 327.68-327.68 327.68z m0-40.96c157.696 0 286.72-129.024 286.72-286.72s-129.024-286.72-286.72-286.72-286.72 129.024-286.72 286.72 129.024 286.72 286.72 286.72z m-241.664-538.624c-69.632 65.536-106.496 155.648-106.496 251.904 0 96.256 38.912 186.368 106.496 251.904-28.672 10.24-57.344 14.336-86.016 14.336-147.456 0-266.24-118.784-266.24-266.24s118.784-266.24 266.24-266.24c28.672 0 59.392 4.096 86.016 14.336z"
    p-id="2138"></path>
</svg>
